<svg xmlns="http://www.w3.org/2000/svg" width="384.03" height="36.49" viewBox="0 0 384.03 36.49">
<title>Møller Mobility Group</title>
<polygon points="15.32 20.05 7.3 0.92 0 0.92 0 28.99 5.41 28.99 5.41 8.94 12.71 26.62 17.96 26.62 25.26 8.94 25.26 28.99 30.67 28.99 30.67 0.92 23.38 0.92 15.32 20.05" fill="#fff"></polygon>
<rect x="60.06" width="5.53" height="28.99" fill="#fff"></rect>
<rect x="69.96" width="5.53" height="28.99" fill="#fff"></rect>
<path d="M89,7.5c-6,0-10.26,4.73-10.26,11.06s4.29,11,11,11a10,10,0,0,0,8.83-4.61l-3.65-2.77a6.13,6.13,0,0,1-5.1,2.57c-3.08,0-5.33-2-5.45-4.81H99.15c0-.4,0-.8,0-1.21C99.19,11.83,95.5,7.5,89,7.5Zm-4.45,8.78A4.45,4.45,0,0,1,89.08,12a4.28,4.28,0,0,1,4.49,4.25Z" fill="#fff"></path>
<polygon points="141.56 24.1 130.45 0.92 127.89 0.92 127.89 28.99 129.85 28.99 129.85 3.93 140.48 26.3 142.64 26.3 153.27 3.93 153.27 28.99 155.23 28.99 155.23 0.92 152.67 0.92 141.56 24.1" fill="#fff"></polygon>
<path d="M170.87,7.66a10.53,10.53,0,0,0-10.71,10.9c0,6.34,4.53,11,10.67,11a10.59,10.59,0,0,0,10.7-11A10.54,10.54,0,0,0,170.87,7.66Zm0,20c-5.06,0-8.58-3.85-8.58-9.07s3.52-9,8.58-9,8.62,3.93,8.62,9S175.88,27.63,170.83,27.63Z" fill="#fff"></path>
<path d="M196,7.66A9.08,9.08,0,0,0,188,12.15V0h-2V29h2V25.14a8.86,8.86,0,0,0,7.74,4.37c5.94,0,10.15-4.53,10.15-10.87S201.82,7.66,196,7.66Zm-.12,20c-4.85,0-7.9-4.09-7.9-9,0-5.77,3.65-9.1,8-9.1,4.53,0,7.9,3.77,7.9,9.1S200.29,27.63,195.84,27.63Z" fill="#fff"></path>
<rect x="210.39" y="8.18" width="2.01" height="20.81" fill="#fff"></rect>
<path d="M211.4,1a1.63,1.63,0,0,0-1.65,1.65,1.65,1.65,0,0,0,3.29,0A1.62,1.62,0,0,0,211.4,1Z" fill="#fff"></path>
<rect x="218.41" width="2" height="28.99" fill="#fff"></rect>
<path d="M227.43,1a1.62,1.62,0,0,0-1.64,1.65,1.65,1.65,0,0,0,3.29,0A1.63,1.63,0,0,0,227.43,1Z" fill="#fff"></path>
<rect x="226.43" y="8.18" width="2" height="20.81" fill="#fff"></rect>
<path d="M236.57,21.69V10h4.89V8.18h-4.89V3.85h-2V8.18H232V10h2.57V23c0,4.21,2.08,6.25,5.37,6.25.76,0,1.73-.08,1.73-.08v-1.8s-.49,0-.93,0C237.62,27.39,236.57,26.22,236.57,21.69Z" fill="#fff"></path>
<polygon points="253.77 26.5 246.23 8.18 244.03 8.18 252.73 28.95 249.68 36.17 251.77 36.17 263.24 8.18 261.07 8.18 253.77 26.5" fill="#fff"></polygon>
<path d="M292,17.24h6.74v7a12.53,12.53,0,0,1-9,3.33C282.92,27.59,278,22.33,278,15s4.93-12.71,11.87-12.71a11.82,11.82,0,0,1,8.65,3.28l1.33-1.4a14.15,14.15,0,0,0-10-3.81c-8,0-14,6.34-14,14.64s6,14.47,14,14.47a14,14,0,0,0,11-4.61V15.36H292Z" fill="#fff"></path>
<path d="M308.38,11.91V8.18h-2V29h2V18c0-4.33,1.48-8.38,6.41-8.38v-2A6.62,6.62,0,0,0,308.38,11.91Z" fill="#fff"></path>
<path d="M327.46,7.66a10.53,10.53,0,0,0-10.71,10.9c0,6.34,4.53,11,10.67,11a10.59,10.59,0,0,0,10.71-11A10.55,10.55,0,0,0,327.46,7.66Zm0,20c-5.05,0-8.58-3.85-8.58-9.07s3.53-9,8.58-9,8.62,3.93,8.62,9S332.47,27.63,327.42,27.63Z" fill="#fff"></path>
<path d="M356.33,20.89c0,4.05-2.61,6.78-6.26,6.78-3.25,0-5.65-2.33-5.65-6.14V8.18h-2V21.69c0,4.85,3.13,7.82,7.42,7.82a7.37,7.37,0,0,0,6.5-3.81V29h2V8.18h-2Z" fill="#fff"></path>
<path d="M373.89,7.66A8.83,8.83,0,0,0,366.15,12V8.18h-2V36.49h2V25a9.05,9.05,0,0,0,7.94,4.49c5.85,0,9.94-4.57,9.94-11S379.82,7.66,373.89,7.66Zm.16,20c-4.33,0-8-3.33-8-9.11,0-4.89,3-9,7.89-9,4.46,0,8,3.53,8,9S378.58,27.63,374.05,27.63Z" fill="#fff"></path>
<path d="M47.22,7.62v5a5.89,5.89,0,0,1,4.14,5.92,5.75,5.75,0,0,1-4.14,5.82v5a10.62,10.62,0,0,0,9.67-10.84A10.85,10.85,0,0,0,47.22,7.62Z" fill="#fff"></path>
<path d="M34.32,18.56A10.64,10.64,0,0,0,44.1,29.42v-5a5.74,5.74,0,0,1-4.25-5.86,5.83,5.83,0,0,1,4.25-6v-5A10.82,10.82,0,0,0,34.32,18.56Z" fill="#fff"></path>
<path d="M111,7.92V8a5.86,5.86,0,0,0-3.27,3.1V8h-5.41V29h5.53V19.85c0-4.1,1.51-6.58,5.46-6.77a5.44,5.44,0,0,1,1.59.26l0,.06V7.62A7.9,7.9,0,0,0,111,7.92Z" fill="#fff"></path>
</svg>